<svg viewBox="0 0 1600 1200" xml:space="preserve" xmlns="http://www.w3.org/2000/svg" enable-background="new 0 0 1600 1200"><path d="M608.3 470.3H181.1c-10.3 0-18.7-8.5-18.7-19V209.6c0-10.5 8.4-19 18.7-19h427.1c10.3 0 18.7 8.5 18.7 19v241.7c.1 10.5-8.3 19-18.6 19zM181.1 192.6c-9.2 0-16.7 7.6-16.7 17v241.7c0 9.4 7.5 17 16.7 17h427.1c9.2 0 16.7-7.6 16.7-17V209.6c0-9.4-7.5-17-16.7-17H181.1z" fill="#000000" class="fill-000000"></path><path d="m387.6 307.9-30.7 17.4v-35.2l30.7 17.8z" fill="#8197e5" class="fill-8197e5"></path><path d="M215.8 404.3c-3.1 7.8 1.2 3.6 6 5.1 4.8 1.5 12.6 5.7 12.3 2.5-.2-3.2-1-7.7 2-12.7 2.9-5-.1-5.3-2.2-5.3s-7.7-.3-11.3-2.9c-3.7-2.6-4.6-.7-4.6-.7-.1 1.4.9 6.2-2.2 14z" fill="#6c63ff" class="fill-efb940"></path><path d="M323.2 362.2h244.3v24.3H323.2v-24.3zM316.6 511h23.8v81.8h-23.8V511z" fill="#2552c2" class="fill-2552c2"></path><path d="M354.5 540.1h25.3v52.1h-25.3v-52.1z" fill="#8197e5" class="fill-8197e5"></path><path d="M391.7 563.1h23.7v28.8h-23.7v-28.8z" fill="#6c63ff" class="fill-efb940"></path><path d="M428.4 139h91.5v21.8h-91.5V139z" fill="#8197e5" class="fill-8197e5"></path><path d="M411 435.7c0-5.8 4.7-10.4 10.4-10.4 5.8 0 10.4 4.7 10.4 10.4 0 5.8-4.7 10.4-10.4 10.4-5.8 0-10.4-4.7-10.4-10.4z" fill="#6c63ff" class="fill-efb940"></path><path d="M441 435.2c0-5.8 4.7-10.4 10.4-10.4 5.8 0 10.4 4.7 10.4 10.4 0 5.8-4.7 10.4-10.4 10.4s-10.4-4.7-10.4-10.4z" fill="#2552c2" class="fill-2552c2"></path><path d="m387.6 307.9-30.7 17.4v-35.2l30.7 17.8z" fill="#8197e5" class="fill-8197e5"></path><path d="M215.8 404.3c-3.1 7.8 1.2 3.6 6 5.1 4.8 1.5 12.6 5.7 12.3 2.5-.2-3.2-1-7.7 2-12.7 2.9-5-.1-5.3-2.2-5.3s-7.7-.3-11.3-2.9c-3.7-2.6-4.6-.7-4.6-.7-.1 1.4.9 6.2-2.2 14z" fill="#6c63ff" class="fill-efb940"></path><path d="M323.2 362.2h244.3v24.3H323.2v-24.3zM316.6 511h23.8v81.8h-23.8V511z" fill="#2552c2" class="fill-2552c2"></path><path d="M354.5 540.1h25.3v52.1h-25.3v-52.1z" fill="#8197e5" class="fill-8197e5"></path><path d="M391.7 563.1h23.7v28.8h-23.7v-28.8z" fill="#6c63ff" class="fill-efb940"></path><path d="M428.4 139h91.5v21.8h-91.5V139z" fill="#8197e5" class="fill-8197e5"></path><path d="M411 435.7c0-5.8 4.7-10.4 10.4-10.4 5.8 0 10.4 4.7 10.4 10.4 0 5.8-4.7 10.4-10.4 10.4-5.8 0-10.4-4.7-10.4-10.4z" fill="#6c63ff" class="fill-efb940"></path><path d="M929.5 732.4c13.7-2.8 27.6-12.3 45.6-27.3 18-14.9 19.4-36.6 19.4-36.6 2.7-10.8-20.8-132.8-20.8-132.8l-217.3-.5c-15.8 22.9 6 33.7 6 33.7l175.9.7c25 129.9-57.8 157.7-57.8 157.7l49 5.1z" fill="#2552c2" class="fill-2552c2"></path><path d="M706.9 986.6h-1c-.3 0-.6-.1-.8-.4s-.3-.5-.2-.8l4-22.1c0-.3.2-.5.4-.6.2-.2.5-.2.8-.2 9.8 1.9 33.5 14.4 34.5 14.9.3.2.5.5.5.8 0 .3-.1.7-.4.9-9.1 7.1-32.6 7.5-37.8 7.5zm3.9-22-3.6 19.9c5.2 0 25.8-.5 35.1-6.2-5.2-2.7-22.9-11.6-31.5-13.7zM666 978.1c-12.4 0-22.4 12.2-22.4 27.3 0 15.1 10 27.3 22.4 27.3 12.4 0 22.4-12.2 22.4-27.3 0-15-10.1-27.3-22.4-27.3zm0 2c11.5 0 20.7 11.3 20.7 25.3s-9.3 25.3-20.7 25.3c-11.5 0-20.7-11.3-20.7-25.3-.1-13.9 9.2-25.3 20.7-25.3zM1066.9 731.1c-.5 0-.9-.4-1-.9l-31.1-329.6c0-.2 0-.4.1-.5.4-.7 38.1-75.1 137.9-144.7 20.9-14.6 90.9-4.5 136.5 26.3 25.4 17.2 53.6 47.2 43.1 93 0 .1-.1.2-.1.3l-147.5 245.8c-1.8 5.6-32.6 102.1-58.1 109.2h-.3l-79.5 1.1zm-30.1-330.4 31 328.4 78.3-1.1c24.7-7.2 56.4-107 56.7-108 0-.1.1-.1.1-.2L1350.4 374c10.1-44.6-17.4-73.9-42.3-90.7-45-30.4-113.8-40.6-134.2-26.3-96.4 67.2-134.6 138.9-137.1 143.7z" fill="#000000" class="fill-000000"></path><path d="M1100.1 612.1c4.7 1.4 17.6 16.3 17.6 16.3-10.6 2.3-18.9-.9-18.9-.9-1.2-2.1 1.3-15.4 1.3-15.4z" fill="#000000" class="fill-000000"></path><path d="M942.5 513.4s-208.4 87.7-241.1 127.2c-21.8 21-67.4 129.6-67.4 129.6L528.9 891.5c58.3 35.4 125.8 149.3 125.8 149.3l48.9-79.7 41.5 18.7 17.8-115.4 68.9-112.1 47.8-4.6 168.6-8.7 16.7-8.1c48.6-14.7 35.7-126.6 35.7-126.6-31-47.3-158.1-90.9-158.1-90.9z" fill="#8197e5" class="fill-8197e5"></path><path d="M976.4 387.5s74.4-67 103.1-74.5c39.8-.8 54.7 9.6 54.7 9.6-4-8.5.9-9.3.9-9.3 14-6.8 23.9 17.4 23.9 17.4l-3.8 40.6 48.7-20.3c23-5.1 30.8 6.3 30.8 6.3 10.2 3.2 18.8 5 25.8 7.9 16.8 6.9 36.3 21 34.5 37.4-2.5 23-31.2 48.6-31.2 48.6l-146.3 177.2c-15.7-17.4-56.2-44.2-95.4-63.3-57.2-27.9-101-42.6-101-42.6l47.6-58.9L856.9 440l15.9-63 103.6 10.5z" fill="#6c63ff" class="fill-efb940"></path><path d="m1223.8 321.6-3.4 5.3c12 4 13.1-3.2 13.1-3.2 11.3-1.5 11.3-14.4 11.3-14.4 7.4-1.4 5.9-8.2 5.9-8.2 6.4-3.3.6-12.3.6-12.3 3.4-7.3-2.3-11.1-2.3-11.1-1.4-9.4-9.9-9.7-9.9-9.7-4.3-9.3-18.7-7.1-18.7-7.1-8.3-5.5-16.7 1.5-16.7 1.5-10.7-5.7-15.3 5.1-15.3 5.1-4 .8-4.5 3.4-4.5 3.4l39.9 50.7z" fill="#04000a" class="fill-04000a"></path><path d="M1197.1 268.3c3.7-.6 9.8-.5 19.2 4.3 13.6 7 15 19.8 15.2 26.6.1 2.5-.7 4.7-.7 4.7 9.7 3.1 6.2 9.8 1.1 14.4-1.7 1.6-6.7 1.6-6.7 1.6l-21.6 31.9-49.2 20.8 3.9-40.9 13.4-13.3c-8.4-5.3-2.1-19 1.3-24.2 3.4-5.2 17.9-23.8 17.9-23.8 1.2-.5 2.6-1.5 6.2-2.1z" fill="#a97653" class="fill-a97653"></path><path d="M1180.4 308.6c5.8 2.7 15.1-1.4 15.1-1.4l-12.8-8.1c-2.6 2.3-4.6 8.5-2.3 9.5zM1187 269.9s23.7 1 40.4 25.6c0 0-5 7.7-12.6 6.6-7.6-1.1-21.7-10.8-23.3-10.8-1.6 0-19.4-5.5-16.7-12 2.8-6.7 12.2-9.4 12.2-9.4z" fill="#feffff" class="fill-feffff"></path><path d="M1192.1 291.8s18.5 9.4 23.2 10.4c4.7 1 12-6.8 12-6.8l5.4 9-4.3.4-2.4-1.4s-7.7 3.8-11.7 4.7c-4 .8-18.3-6.8-19.3-7.3-.9-.5-4.1-5.6-4.1-5.6s-2.5-.9-5.3-.8c-2.7.1-10.4-3.5-12.1-6.1-1.8-2.6.9-7.1.9-7.1.6 3.6 17.7 10.6 17.7 10.6z" fill="#04000a" class="fill-04000a"></path><path d="m984.1 451.4-4.1 4.2c-3-1.7-18.7-8.8-35.2-13.5-16.4-4.7-13-1-16.2 2.5-3.3 3.5.7 9.3.7 9.3-11.9 1.8-9.3 12.6-9.3 12.6-5.2.2-9.6 4.5-10.5 7.8-.9 3.3 8.7 14.8 8.7 14.8-13.3-6.2-14.6-.2-14.6-.2-12.5 12 30.7 27.6 33.6 28.8 2.9 1.2 7.7-6.1 7.7-6.1l35.8 13.7c8.3-5.5 32.4-66.6 32.4-66.6l-29-7.3zM828.6 360c-7.6-3.1-29.1-2.3-29.1-2.3-22.1 2.7-20.8 7.4-19.7 11.5 1 4.1 12.1 4.3 12.1 4.3-10.3 7.7-.3 11.7-.3 11.7-25 9.5-9.3 16.7-9.3 16.7-10.5 9.7-1.3 13.3-1.3 13.3-11.1 25.6 33.8 19 36.5 19 2.7 0 4.4-.3 4.4-.3l36.5-.3 14-54.5c0-.1-36.2-16-43.8-19.1z" fill="#a97653" class="fill-a97653"></path><path d="M1177.7 735.6c13.7-2.8 27.6-12.3 45.6-27.3s19.4-36.6 19.4-36.6c2.7-10.8-20.8-132.8-20.8-132.8l-217.3-.5c-15.8 22.9 6 33.7 6 33.7l175.9.7c25 129.9-57.8 157.7-57.8 157.7l49 5.1z" fill="#2552c2" class="fill-2552c2"></path><path d="M1468.5 333.8c3.2.9 3.2 2.9 3.1 3.8-.1.8-5.9 3.4-9.8 9.2-3.8 5.8-5 2.8-5.3 2.3-.4-.5-7.6-8.9-9.6-9.8-2.1-1-1.8-2.8-1.8-2.8s5.6-3.2 8.1-5.2c2.5-1.9 4.6-7.8 4.6-7.8 1.1-.9 5.4 8.8 10.7 10.3z" fill="#6c63ff" class="fill-efb940"></path><path d="M1067.2 162.2c0-8 6.5-14.4 14.4-14.4 8 0 14.4 6.5 14.4 14.4 0 8-6.5 14.4-14.4 14.4-8 0-14.4-6.5-14.4-14.4z" fill="#2552c2" class="fill-2552c2"></path><path d="M996 901.2c-.3 0-.5 0-.8.2l-167 112.7c-.3.2-.4.5-.4.8v29.8c0 .6.4 1 1 1s1-.4 1-1v-29.2L996.3 903c.5-.3.6-.9.3-1.4-.1-.2-.4-.4-.6-.4zM1022.7 901.2c-.3 0-.5.2-.7.4-.3.5-.2 1.1.3 1.4l166.6 112.5v29.2c0 .6.5 1 1 1 .6 0 1-.4 1-1v-29.8c0-.3-.2-.6-.4-.8l-167-112.7c-.3-.2-.6-.3-.8-.2z" fill="#000000" class="fill-000000"></path><path d="M828.1 1043.6c-12.8 0-23.2 10.4-23.2 23.2 0 12.8 10.4 23.2 23.2 23.2s23.2-10.4 23.2-23.2c.1-12.8-10.3-23.2-23.2-23.2zm0 2c11.7 0 21.2 9.5 21.2 21.2s-9.5 21.2-21.2 21.2-21.2-9.5-21.2-21.2 9.5-21.2 21.2-21.2zM1010 1043.6c-12.8 0-23.2 10.4-23.2 23.2 0 12.8 10.4 23.2 23.2 23.2 12.8 0 23.2-10.4 23.2-23.2.1-12.8-10.3-23.2-23.2-23.2zm0 2c11.7 0 21.2 9.5 21.2 21.2s-9.5 21.2-21.2 21.2-21.2-9.5-21.2-21.2 9.5-21.2 21.2-21.2zM1190.5 1043.6c-12.8 0-23.2 10.4-23.2 23.2 0 12.8 10.4 23.2 23.2 23.2 12.8 0 23.2-10.4 23.2-23.2 0-12.8-10.4-23.2-23.2-23.2zm0 2c11.7 0 21.2 9.5 21.2 21.2s-9.5 21.2-21.2 21.2-21.2-9.5-21.2-21.2 9.4-21.2 21.2-21.2z" fill="#000000" class="fill-000000"></path><path d="M1010 900c-.5 0-1 .5-1 1l.5 142.9c0 .6.5 1 1 1s1-.5 1-1L1011 901c0-.6-.4-1-1-1zM1010 1053.8c-7.2 0-13 5.8-13 13s5.8 13 13 13 13-5.8 13-13c.1-7.2-5.8-13-13-13zM1189.8 1053.8c-7.2 0-13 5.8-13 13s5.8 13 13 13 13-5.8 13-13-5.9-13-13-13zM828.3 1053.8c-7.2 0-13 5.8-13 13s5.8 13 13 13 13-5.8 13-13-5.8-13-13-13zM614.8 980.4c3.6 3.2 40.4 58.6 40.4 58.6-9.6-.3-47.2-49-47.2-49l6.8-9.6zM1186.2 269.4h-.2c-.1 0-.3.1-.5.2-.4.2-.9.4-1.3.6-1.4.7-2.8 1.5-4.1 2.3-4.5 2.9-6.9 6-6.1 9.3.2.8.7 1.5 1.4 2.2 1.2 1.1 3.2 2.3 6.3 3.8 1.1.5 7.6 3.5 9.6 4.5 1 .5 2.2 1.1 3.7 1.9.7.3 3.4 1.8 4.1 2.2 1.1.6 2 1.1 2.9 1.5 7.1 3.6 11.8 5.2 15 4.4 2.9-.7 5.1-1.6 6.8-2.5 3-1.8 4-3.7 3.7-5.4 0-.1 0-.2-.1-.2l-.3-.6c-.2-.5-.5-1-.8-1.5-.9-1.5-2.1-3.1-3.6-4.5l-.6-.6c-11.2-10.5-25.6-18.5-35.9-17.6zm.2 1.6c9.8-.8 23.8 7 34.6 17.1.2.2.4.3.5.5 1.3 1.4 2.5 2.8 3.3 4.3.3.5.6 1 .8 1.4.1.2.2.4.2.5.1.3 0 .8-.2 1.3-.4.8-1.3 1.7-2.7 2.5-1.5.9-3.6 1.7-6.4 2.4-2.8.7-7.2-.8-14-4.3-.9-.5-1.8-.9-2.9-1.5-.7-.4-3.4-1.8-4.1-2.2-1.5-.8-2.7-1.4-3.8-1.9-2-1-8.4-3.9-9.5-4.5-3.1-1.5-4.9-2.6-6-3.6-.6-.5-.9-1-1-1.4-.6-2.4 1.5-5.1 5.4-7.6 1.3-.8 2.6-1.6 4-2.2.5-.2.9-.4 1.3-.6.3-.2.4-.2.5-.2z" fill="#000000" class="fill-000000"></path><path d="M1173.9 280.6c-.2 0-.3.1-.5.3-.1.1-.2.2-.3.4-.2.3-.4.7-.6 1.1-.5 1.1-.9 2.3-.9 3.4 0 .8.1 1.5.5 2.2.9 1.9 4.5 4.3 11 6.9 1 .4 1.9.5 3.6.4 1.8 0 2.5.1 3.4.5.6.3 1.3 1.1 2.5 2.8 1.4 1.9 1.9 2.6 2.7 3.1 5 3.3 15.3 6.9 19.3 6.7 3.2-.2 6.2-1.1 8.8-2.5 1-.5 2-1.1 2.8-1.7.2-.1.3-.2.4-.3l.9 1c.3.3.8.3 1.1 0 .3-.3.3-.8 0-1.1l-1.4-1.5c-.3-.3-.8-.3-1.1 0l-.2.2c-.2.2-.4.3-.7.5-.7.5-1.6 1.1-2.5 1.6-2.4 1.3-5.2 2.1-8.2 2.3-3.7.2-13.6-3.3-18.4-6.4-.6-.4-1.1-1-2.3-2.7-1.4-2-2.1-2.8-3.1-3.3-1.2-.6-2.1-.7-4.1-.7-1.6 0-2.3 0-3.1-.4-6.2-2.5-9.5-4.7-10.2-6.2-.2-.4-.3-.9-.3-1.5 0-.9.3-1.8.8-2.8.2-.4.4-.7.5-1 .1-.2.2-.3.2-.4.2-.3.2-.8-.2-1 0 .1-.2.1-.4.1zM1214.4 349c-2.3 0-4.7.3-7 .6-.8.1-1.6.3-2.3.4-.2.1-.8.2-.8.2-.4.1-.7.5-.5.9.1.4.5.6.9.5.1 0 .4-.1.8-.2.7-.1 1.4-.3 2.2-.4 4.4-.7 9.1-.9 13.4-.1 4.2.8 7.8 2.4 10.5 5.1 4.1 4 3.4 8-1.4 11.5-4.6 3.3-12.3 5.7-20 6.1-5.4.3-13.8 1-24.6 1.9-1.2.1-30.7 2.7-30.8 2.7-.4 0-.7.4-.7.8s.4.7.8.7c.1 0 29.6-2.6 30.8-2.7 10.7-.9 19.2-1.5 24.5-1.9 8.1-.5 16.1-2.9 20.9-6.4 5.5-4 6.4-9 1.6-13.8-2.9-2.9-6.7-4.6-11.3-5.5-2.3-.3-4.7-.5-7-.4zM1138.3 311.6c-5.4.4-8.5 4.6-5.9 9.9 1.5 3.1 3.3 8.5 5.4 15.7.8 2.8 1.7 5.9 2.5 9.2 1.6 6.1 3.3 12.7 4.8 19.3.5 2.3 2 8.6 2 8.8.1.4.5.7.9.6.4-.1.7-.5.6-.9 0-.1-1.5-6.5-2.1-8.8-1.6-6.6-3.2-13.2-4.8-19.3-.9-3.3-1.7-6.4-2.6-9.2-2.1-7.4-4-12.8-5.5-16-2.4-4.9 1-8.4 6.8-7.7 6.9.9 13.8 7.2 17.4 18 .1.4.6.6 1 .5.4-.1.6-.6.5-1-3.8-11.3-11.1-18-18.6-19-.8-.1-1.6-.2-2.4-.1z" fill="#000000" class="fill-000000"></path><path d="M1157.7 378.5c-.2 0-.4.1-.5.3 0 0-.6.7-.8 1-.6.8-1.2 1.8-1.9 2.9-2 3.1-4 6.6-5.8 10.2-2.1 4.1-3.9 8.3-5.3 12.4-.5 1.4-1 2.9-1.5 4.6-.5 1.6-2 6.5-2.1 7.1-.2.7-1 3.5-1.3 4.4-4.5 15.1-7.7 22.9-11.8 26.9-.3.3-.3.8 0 1.1.3.3.8.3 1.1 0 4.3-4.3 7.5-12.1 12.1-27.6.3-.9 2.9-9.8 3.4-11.4.5-1.7 1-3.2 1.5-4.6 1.4-4.1 3.2-8.2 5.2-12.3 1.8-3.6 3.8-7 5.7-10.1.7-1.1 1.3-2 1.9-2.8.2-.3.7-1 .7-1 .3-.3.2-.8-.2-1.1 0 0-.2-.1-.4 0zM1146.6 371.9c-.2.1-.3.2-.4.4 0 .1-2.1 5-2.8 6.8-2.2 5.3-4.4 11.1-6.6 17.1-5.3 14.5-21.8 45.2-25.7 47.7-.4.2-.5.7-.2 1 .2.4.7.5 1 .2 4.3-2.7 20.8-33.6 26.3-48.4 2.2-6 4.4-11.7 6.6-17.1.8-1.9 2.8-6.7 2.8-6.8.2-.4 0-.8-.4-1-.2 0-.4 0-.6.1zM947.2 511.1c-.4-.1-.8 0-1 .4-.1.4 0 .8.4 1 .1 0 15.7 5.9 21.4 8.1 16.2 6 32.7 12.1 48.6 17.7.4.1.7.2 1.1.4h4.5c-1.7-.6-3.3-1.2-5-1.8-15.9-5.6-32.4-11.6-48.6-17.7-5.8-2.2-21.4-8.1-21.4-8.1zM1263.2 451.7c-9.7 10.2-21.3 21.4-34.6 33.2-33.8 30-41.3 39.3-65.5 52.6-.4.2-.3 1-.3 1s.6.5 1 .3c24.3-13.3 31.9-22.7 65.8-52.8 13.1-11.7 24.6-22.7 34.3-32.8l-.7-1.5z" fill="#000000" class="fill-000000"></path><path d="M1193.4 416c-.2 0-.4 0-.6.1l-87.7 65.4L984 450.8c-.4-.1-.8.2-.9.6-.1.4.1.8.5.9l121.5 30.8c.2.1.4 0 .6-.1l88-65.6c.3-.2.4-.7.2-1.1-.1-.1-.3-.2-.5-.3zM934.4 439.4c-2.8.1-4.7.8-5.7 2.3-2.8 4.1-2.8 7.9-.7 11.4 1.6 2.6 3.7 4.5 8.8 8.4.3.2.7.5.8.6 2.4 1.8 10.2 5.6 18 8.6 10 3.8 18.8 5.9 24.6 5.6 10.1-.6 10.3-12 .6-20.6 0 0-.1-.1-.2-.1s-1-.5-1.4-.7c-1.1-.6-2.4-1.2-3.8-1.8-4-1.9-8.2-3.8-12.5-5.5-2.8-1.2-5.6-2.3-8.2-3.2-8.7-3.3-15.7-5.1-20.3-5zm.6 1.6c4.3.1 10.9 1.7 19.2 4.8 2.6 1 5.3 2 8.2 3.2 4.2 1.8 8.4 3.6 12.4 5.5 1.4.7 4.5 2.2 4.8 2.3.1.1.2.1.3.1 8.8 7.9 8.5 17.5.2 18-5.5.3-14.2-1.8-24-5.5-7.7-2.9-15.4-6.7-17.7-8.4-.1-.1-.5-.4-.8-.6-4.9-3.7-7-5.6-8.4-8-1.9-3.1-1.8-6.1.7-9.8.8-1.2 2.5-1.7 5.1-1.6z" fill="#000000" class="fill-000000"></path><path d="M931.7 439.5c-.2.1-.3.2-.4.4-.2.4-.1.8.3 1 1.4.8 2.6 1.6 3.4 2.5 3.3 3.2 2.7 6.6-.4 9.9-.6.6-1.2 1.2-1.8 1.7-.2.2-.4.3-.6.5-.1.1-.2.1-.2.1-.3.2-.4.7-.2 1.1.2.3.7.4 1 .2.2-.1.5-.4.9-.7.7-.5 1.3-1.2 2-1.9 3.5-3.9 4.3-8.1.3-12-1-1-2.2-1.9-3.7-2.7-.2-.2-.5-.2-.6-.1z" fill="#000000" class="fill-000000"></path><path d="M927.4 453.4c-.2-.1-.4-.1-.6 0-10.6 5.2-9.7 12.6 0 20.8 7.2 6 18.9 12.3 31.5 17.6 10 4.2 15.5.9 17.3-7 .6-2.6.7-5.3.5-7.7v-.8c0-.4-.4-.7-.8-.7s-.7.4-.7.8v.7c.2 2.3.1 4.9-.5 7.3-1.6 7.1-6.1 9.8-15.2 6-12.4-5.2-24.1-11.4-31.1-17.3-9-7.6-9.7-13.6-.3-18.3.4-.2.5-.6.3-1-.1-.2-.3-.4-.4-.4z" fill="#000000" class="fill-000000"></path><path d="M925.3 455.5c-.2 0-.4.1-.5.3-.3.3-.2.8.1 1.1 5.5 4.6 5.5 8.3 2.2 11.4-.5.5-1 .9-1.6 1.2-.3.2-.6.4-.7.4-.4.2-.5.6-.3 1s.6.5 1 .3c.2-.1.5-.3.8-.5.6-.4 1.2-.9 1.8-1.4 3.9-3.7 3.9-8.5-2.3-13.7-.1-.1-.3-.1-.5-.1z" fill="#000000" class="fill-000000"></path><path d="M918.9 465.4c-7.2 1.9-10.4 5.4-9.7 10 .6 3.9 3.8 8.4 9.2 13.4 8.7 8 23.5 17 30.1 18.9 5.5 1.6 10.2-1.3 13.9-7.1 1-1.6 1.9-3.4 2.7-5.1.3-.6.5-1.1.7-1.6.1-.3.2-.5.2-.7.1-.4-.1-.8-.5-.9-.4-.1-.8.1-.9.5 0 .1-.1.3-.2.6-.2.5-.4 1-.6 1.6-.7 1.7-1.6 3.3-2.6 4.8-3.4 5.3-7.5 7.9-12.2 6.5-6.4-1.9-21-10.7-29.5-18.6-5.2-4.7-8.3-9-8.8-12.5-.5-3.8 2.1-6.6 8.6-8.4.4-.1.6-.5.5-.9-.1-.4-.5-.6-.9-.5z" fill="#000000" class="fill-000000"></path><path d="M915.9 466.8c-.2 0-.4 0-.5.2-.3.3-.3.8 0 1.1 4.7 5 4.4 9.1 1.1 12.4-.5.5-1.1 1-1.7 1.4-.3.2-.6.4-.8.5-.4.2-.5.6-.3 1s.6.5 1 .3c.2-.1.5-.3.9-.5.7-.4 1.3-1 1.9-1.6 3.8-3.9 4.2-8.8-1-14.5-.2-.3-.4-.3-.6-.3zM909.7 485.5c-1-.1-1.9 0-2.8.1-4 .6-6.3 3.6-6 8.5.3 4.7 5.6 9.5 14.6 14.5 6 3.3 12.6 6.2 19.3 8.8 3.9 1.5 7.3-.8 10.1-5.4.8-1.2 1.4-2.6 2-3.9.2-.5.4-.9.5-1.3.1-.2.2-.4.2-.5.1-.4-.1-.8-.5-.9-.4-.1-.8.1-.9.5 0 .1-.1.2-.2.4-.1.4-.3.8-.5 1.2-.5 1.3-1.2 2.5-1.9 3.7-2.5 4.1-5.2 6-8.3 4.8-6.7-2.5-13.2-5.4-19.1-8.7-8.5-4.7-13.5-9.3-13.8-13.3-.3-4.2 1.5-6.4 4.7-6.9 3.1-.5 7.3.7 11.1 3.1.4.2.8.1 1-.2.2-.4.1-.8-.2-1-3-2.1-6.3-3.3-9.3-3.5z" fill="#000000" class="fill-000000"></path><path d="M903.5 487.3c-.2 0-.5.3-.5.3l.2 1s6.1 5.1 6.7 7.5c.4 1.7 0 3.2-1 4.5-.3.3-.5.6-.8.8-.2.1-.3.2-.3.3-.3.2-.4.7-.2 1 .2.3.7.4 1.1.2.4-.3 1-.8 1.5-1.5 3.1-4 2.3-8.7-6-14.1-.3 0-.5-.1-.7 0zM1012.1 459.2c-.4-.1-.8.1-1 .4 0 .1-.8 2.1-1.1 2.8-.9 2.3-1.8 4.8-2.9 7.5-3 7.7-6.2 15.5-9.4 22.7-2.1 4.7-4.1 9-6 12.8-4.5 9.1-8.4 15.4-11.5 18.3-.3.3-.3.8 0 1.1.3.3.8.3 1.1 0 3.2-3 7.2-9.4 11.8-18.7 1.9-3.9 3.9-8.2 6-12.9 3.2-7.3 6.4-15 9.4-22.8 1.1-2.7 2-5.2 2.9-7.5.3-.8 1-2.7 1.1-2.9.2-.2 0-.7-.4-.8zM1062.7 373.6c-.2 0-.4.1-.5.2l-83.8 81.8c-.3.3-.3.8 0 1.1.3.3.8.3 1.1 0l83.8-81.8c.3-.3.3-.8 0-1.1-.2-.1-.4-.2-.6-.2zM804.7 356.6c-2.6.1-5.1.2-7.6.5-10.8 1.2-18.1 4.1-18.9 8.5-.8 4.4 2.3 6.9 8.4 8 4.5.8 10 .8 19.3.4.4 0 .7-.4.7-.8s-.4-.7-.8-.7c-9.3.4-14.6.4-19-.3-5.5-.9-7.9-2.9-7.2-6.2 1.3-7.1 29.4-10.3 45.6-5.9 4.7 1.3 11.2 3.7 19.1 7.1 1.7.7 3.4 1.5 5.2 2.3 5.1 2.3 10.3 4.7 15.3 7.1 1.8.9 6.5 3.2 6.6 3.2.4.2.8 0 1-.3.2-.4 0-.8-.3-1-.1 0-4.9-2.4-6.6-3.2-5-2.4-10.3-4.9-15.4-7.2-1.8-.8-3.5-1.5-5.2-2.3-8-3.4-14.6-5.9-19.3-7.2-5.5-1.6-13.2-2.3-20.9-2z" fill="#000000" class="fill-000000"></path><path d="M795.2 357.4c-.4.1-.6.5-.5.9 0 .1 0 .2.1.3.1.3.1.6.2.9.2.9.3 1.8.3 2.6 0 1.9-.5 3-1.7 3.2-4.3.9-12.2.9-13.5-.1-.3-.3-.8-.2-1.1.1-.3.3-.2.8.1 1 1.9 1.5 10 1.5 14.8.4 2-.4 2.9-2.2 2.9-4.7 0-.9-.1-1.9-.3-2.9-.1-.3-.2-.7-.2-1 0-.2-.1-.3-.1-.4-.2-.2-.6-.4-1-.3zM806.8 372.2c-.4 0-.8.3-.8.7 0 .4.3.8.7.8.1 0 1.1.1 1.6.1 1.2.1 2.6.2 4.1.3 4.3.4 8.6.9 12.5 1.6 8.7 1.6 14.8 3.8 16.9 6.6 2.4 3.1 1.8 6.1-1.3 8.4-2.9 2.2-7.5 3.1-11.3 2.3-1.1-.3-15.2-2.2-20.3-3.2-8.4-1.6-14.6-3.4-18-5.7-3.9-2.6-3.8-5.5 1.1-9.5.3-.3.4-.7.1-1.1s-.7-.4-1.1-.1c-5.7 4.6-5.7 8.7-1 11.9 3.6 2.4 9.9 4.3 18.5 6 5.1 1 19.1 2.9 20.2 3.2 4.2.9 9.2-.1 12.5-2.5 3.7-2.7 4.6-6.7 1.6-10.5-2.4-3.2-8.7-5.5-17.8-7.2-4-.7-8.4-1.3-12.7-1.7-1.5-.1-2.9-.2-4.2-.3-.2 0-1.3-.1-1.3-.1z" fill="#000000" class="fill-000000"></path><path d="M835.7 384.5c-3.7.1-6.2 1.7-7.6 4.4-.5.9-.7 1.9-.9 2.9-.1.6-.1 1.1-.1 1.5 0 .4.3.7.8.7.4 0 .8-.4.8-.8 0 0 0-.7.1-1.2.1-.8.4-1.7.8-2.4 1.8-3.7 6.1-4.9 13.9-2.1.4.1.8-.1 1-.4.1-.4-.1-.8-.5-1-3.4-1.2-6.1-1.7-8.3-1.6z" fill="#000000" class="fill-000000"></path><path d="M791.4 385.5c-10.1.1-17.6 8-14.2 13.9 2 3.5 16.5 7 33.7 8.8 18.1 1.9 31.9 1.1 34-2.9 2.2-4.2.7-7.8-2.9-10.5-.8-.6-1.7-1.2-2.6-1.6-.3-.2-.6-.3-.8-.4-.2-.1-.3-.1-.3-.1-.4-.1-.8.1-1 .4-.1.4.1.8.4 1 0 0 .1.1.3.1.2.1.5.2.8.4.8.4 1.6.9 2.4 1.4 3.1 2.3 4.3 5.1 2.5 8.6-1.6 3.1-15.3 3.8-32.4 2-16.5-1.7-30.9-5.2-32.6-8-2.7-4.7 3.8-11.5 12.9-11.6.4 0 .7-.3.7-.8-.1-.4-.4-.7-.9-.7z" fill="#000000" class="fill-000000"></path><path d="M834.7 398.9c-.3 0-.6 0-1 .1-2.7.3-4.3 2-4.8 4.6-.3 1.3-.3 2.6-.2 3.8 0 .3.1.4.1.5.1.4.5.7.9.6.4-.1.7-.4.6-.8v-.4c-.1-1.1-.1-2.3.2-3.3.4-2 1.5-3.3 3.5-3.5.3 0 .6-.1.9-.1 2.3-.1 4.7.3 7.2 1.1.8.2 1.5.5 2.1.8.2.1.8.3.8.3.4.2.8 0 1-.4.2-.4 0-.8-.4-1 0 0-.6-.3-.9-.4-.7-.3-1.4-.5-2.3-.8-2.6-.8-5.3-1.2-7.7-1.1z" fill="#000000" class="fill-000000"></path><path d="M782.7 401.2c-.2 0-.4 0-.6.2-.2.1-.4.4-.8.7-.6.5-1.1 1.2-1.7 1.8-2.1 2.6-3.1 5.3-2.3 7.9.7 2.2 2.8 4 6.1 5.6 6 2.7 18.2 4.4 30.7 4.5 12.7.2 21.7-1.2 22.3-4.1.5-2.5-.1-5-1.4-7.3-.3-.6-.7-1.2-1.1-1.6-.2-.3-.4-.5-.5-.6-.3-.3-.8-.3-1.1 0-.3.3-.3.8 0 1.1.1.1.2.3.4.5.3.4.7.9 1 1.5 1.1 2 1.7 4.2 1.2 6.3-.3 1.7-9.3 3-20.8 2.9-12.3-.2-24.3-1.8-30.1-4.4-3-1.4-4.7-2.9-5.3-4.7-.7-2 .1-4.3 2-6.5.5-.6 1-1.2 1.6-1.7.2-.2.4-.3.5-.4.1-.1.2-.1.2-.2.3-.3.4-.7.1-1.1 0-.3-.2-.4-.4-.4z" fill="#000000" class="fill-000000"></path><path d="M829.8 412.3c-5 0-7.7 1.5-8.7 4.2-.4 1.2-.4 2.4-.2 3.6.1.3.2.5.2.7.1.4.6.6 1 .4.4-.1.6-.6.4-1 0-.1-.1-.2-.1-.5-.2-.9-.2-1.9.1-2.7 1-2.7 4.8-4 12.8-2.8.4.1.8-.2.8-.6.1-.4-.2-.8-.6-.8-2.2-.4-4-.5-5.7-.5z" fill="#000000" class="fill-000000"></path><path d="M781.1 415.4c-.2 0-.4.1-.5.3-.1.1-.2.3-.4.6-.3.4-.6.9-.9 1.5-1.3 2.7-1.7 5.4-.6 8.1 1.4 3.4 5.3 6.1 11.9 7.8 9.7 2.4 20.4 2.8 28.3 1 8.7-2 13-6.5 10.7-12.8-.1-.4-.6-.6-1-.4-.4.1-.6.6-.5 1 1.9 5.2-1.7 9-9.6 10.9-7.6 1.8-18.1 1.4-27.6-1-6.3-1.6-9.7-4-10.9-6.9-.9-2.2-.5-4.5.6-6.8.2-.5.5-.9.8-1.3.2-.2.3-.4.3-.5.3-.3.2-.8-.1-1.1-.2-.4-.3-.5-.5-.4z" fill="#000000" class="fill-000000"></path><path d="M821.1 425.1c-3-.2-5.1 1.6-6.2 4.6-.4 1-.6 2-.8 3-.1.4-.1.7-.1 1v.4c0 .4.3.8.8.8.4 0 .7-.3.8-.7v-.3c0-.3 0-.6.1-.9.1-.9.4-1.8.7-2.7 1.5-4 4.6-5.1 10.4-1.5.4.2.8.1 1-.2s.1-.8-.2-1.1c-2.5-1.5-4.7-2.3-6.5-2.4zM881.8 746.3c-13-.6-41.6 3.9-46.1 4.5l2.1 1.6c7.7-1.1 32.1-4.6 44-4.1.5 0 .8-.4.8-1s-.4-1-.8-1z" fill="#000000" class="fill-000000"></path><path d="M1078.3 602.3c-.2 0-.4.2-.5.4 0 0-.5.7-.7 1-.6.8-1.2 1.7-2 2.7-2.1 2.8-4.6 5.6-7.2 8.2-7 6.8-14.4 11.1-21.8 11.8-17.6 1.5-218.8 45.2-246.8 53.5-11.2 3.3-45.8 38.7-97 96.9-3 3.5-6.1 7-9.3 10.6-20.5 23.5-42 48.7-63.1 73.9-7.4 8.8-24.3 29.2-25.9 31.2-.6.7-1.9 2.3-2 2.4-.3.4-.3 1 0 1.4.3.4.8.4 1.2 0 .1-.1 20.5-24.7 27.9-33.5 21.1-25.2 42.6-50.4 63-73.8 3.1-3.6 6.2-7.1 9.3-10.6 50.7-57.7 85.5-93.2 96.2-96.4 27.9-8.3 229.1-51.9 246.6-53.4 7.8-.7 15.5-5.1 22.7-12.2 2.7-2.7 5.2-5.5 7.4-8.4.8-1 1.4-1.9 2-2.8.2-.3.7-1 .7-1.1.3-.4.2-1.1-.2-1.4 0-.3-.3-.4-.5-.4z" fill="#000000" class="fill-000000"></path><path d="M1041.4 571.9c-15.6 4.9-27.7 15-36.5 28.7-4.5 7-8 14.5-10.5 22-.9 2.6-1.5 5.1-2.1 7.3-.2.8-.3 1.5-.5 2.1-.1.4-.1.6-.2.7-.1.5.2 1.1.6 1.2s.9-.2 1-.8c0-.1.1-.3.1-.7.1-.6.3-1.2.4-2 .5-2.1 1.2-4.5 2-7.1 2.4-7.3 5.8-14.7 10.2-21.5 8.7-13.3 20.4-23.2 35.7-28 .4-.1.7-.7.6-1.2.1-.5-.4-.8-.8-.7zM858.3 432.7s-16.4.5-18.5.5c-8.3.2-14.3.2-16.9.1-.4 0-.8.3-.8.7 0 .4.3.8.7.8 2.7.1 8.7.1 17-.1 2.1 0 18.5-.5 18.5-.5.4 0 .7-.4.7-.8.1-.4-.2-.8-.7-.7z" fill="#000000" class="fill-000000"></path><path d="M976.4 387.5c-.2-.1-.4 0-.6.1-.4.2-.5.6-.3 1l10.8 19.1c.2.4.6.5 1 .3s.5-.6.3-1l-10.8-19.1c0-.2-.2-.3-.4-.4z" fill="#feffff" class="fill-feffff"></path><path d="M1105.7 481.5c-.2 0-.4 0-.6.1-.3.2-.4.7-.2 1.1l8.9 12.7c.2.3.7.4 1.1.2.3-.2.4-.7.2-1l-8.9-12.7c-.1-.2-.3-.3-.5-.4zM879.8 313.5c-33.1 0-63.3 17.1-80.7 44.8-.2.4-.1.8.2 1 .4.2.8.1 1-.2 17.1-27.3 46.9-44.1 79.4-44.1 20.2 0 39.4 6.5 55.4 18.2 24.1 17.8 38.6 46 38.6 76.6 0 13-2.6 25.7-7.6 37.5-.2.4 0 .8.4 1 .4.2.8 0 1-.4 5.1-11.9 7.7-24.8 7.7-38 0-31.2-14.7-59.8-39.2-77.9a94.407 94.407 0 0 0-56.2-18.5zM787.4 431.6c-.4.1-.7.5-.6.9 8.8 43.9 46.6 73.8 93 73.8 8.1 0 16.1-1 23.8-3 .4-.1.6-.5.5-.9-.1-.4-.5-.6-.9-.5-7.6 2-15.4 3-23.4 3-45.7 0-82.9-29.4-91.5-72.6-.1-.5-.5-.8-.9-.7z" fill="#000000" class="fill-000000"></path><path d="M853.3 729c-13.7 0-24.7 11.1-24.7 24.8 0 13.7 11.1 24.7 24.7 24.7H1163c13.7 0 24.7-11.1 24.7-24.7 0-13.7-11.1-24.8-24.7-24.8H853.3z" fill="#2552c2" class="fill-2552c2"></path><path d="M994.1 776.5c-.6 0-1 .4-1 1v139.2c0 .6.4 1 1 1h28.1c.5 0 1-.4 1-1V777.5c0-.6-.5-1-1-1h-28.1z" fill="#2552c2" class="fill-2552c2"></path><path d="M369.2 919.3c-.2 0-.4.2-.5.4-.3.5-.2 1.1.2 1.4l183.4 152.7c.4.3.9.2 1.2-.3.3-.5.1-1.1-.2-1.4L369.8 919.4c-.2-.1-.4-.2-.6-.1zM710.1 964c-.4-.1-.9.2-1 .7L682.6 1086l-135.7.2c-.5 0-.8.4-.8 1 0 .5.4 1 .8 1l136.3-.2c.4 0 .7-.3.8-.8l26.7-122s-.2-1-.6-1.2z" fill="#000000" class="fill-000000"></path><path d="M558.4 1064.9c-.5 0-.8.5-.8 1 0 .6.3 1 .8 1l129.1.4c.5 0 .8-.4.8-1s-.4-1-.8-1l-129.1-.4zM1227.3 294.4c-.2-.1-.4 0-.6.1-.4.2-.5.6-.3 1l5.2 9.3c.2.4.7.5 1 .3.4-.2.5-.6.3-1l-5.2-9.3c0-.2-.2-.3-.4-.4zM1232.3 308.4c-.1 0-.3.1-.5.1-.4.1-.8.2-1.3.4-1.4.4-2.7.8-4 1.4-.8.3-1.6.7-2.3 1.1-.4.2-.5.7-.3 1 .2.4.6.5 1 .3.6-.4 1.4-.7 2.1-1 1.2-.5 2.5-1 3.8-1.3.5-.1.9-.2 1.3-.3.2-.1.4-.1.5-.1.4-.1.7-.5.6-.9-.1-.5-.5-.8-.9-.7z" fill="#000000" class="fill-000000"></path><path d="M1201.2 267.7c-2.5-.1-4.7.2-6.6.7-1 .3-1.7.5-2.1.7-.4.2-.5.6-.3 1s.6.5 1 .3c.1 0 .2-.1.4-.2.4-.1.8-.3 1.4-.4 3.6-.9 8.3-1 14.3.5 4.8 1.2 10.8 5.3 15 10.7 5 6.3 7.3 13.5 6 20.8-.1.4.2.8.6.9.4.1.8-.2.9-.6 1.4-7.7-1-15.4-6.2-22-4.5-5.6-10.7-9.9-15.9-11.2-3.3-.8-6-1.1-8.5-1.2zM1171.8 318.4c24 9.9 48.1-.4 48.1-.4-30.6 20.3-58.3 10.5-58.3 10.5l10.2-10.1zM492 894.6c.6.6.9 1.1 1.6 1.8 3.3-.5 6.4-1 9.6-1.4 6.5-.9 24.6-3.3 24.6-3.3.5-.1.8-.5.7-1.1 0-.5-.4-1-.9-.9-.1 0-18.2 2.4-24.7 3.3-3.6.5-7.1 1.1-10.9 1.6zM493.6 896.4l-2.1.3 22.8 25.7c.9 1 1 2.8.1 4l-1.8 2.4c-.9 1.1-2.3 1.2-3.3.2L482 898.1l-2.1.3 28.4 32c1.6 1.8 4.1 1.7 5.6-.3l1.8-2.4c1.5-1.9 1.4-5-.2-6.8 0 .1-13.1-14.6-21.9-24.5zM479.9 898.5l-1.6-1.8c-3.3.5-6.5.9-9.7 1.4.4.5 1.1 1.2 1.6 1.8 3.2-.5 6.4-1 9.7-1.4zM470.1 899.9c-.7.1-1.4.2-2.2.3l24.8 28c.9 1 1 2.8.1 3.9l-1.8 2.5c-.9 1.1-2.3 1.2-3.3.1l-29.4-33.1-2.1.3c.1.1.1.2.2.3l30.2 34c1.6 1.8 4.1 1.7 5.6-.2l1.8-2.4c1.5-1.9 1.4-5-.2-6.8.1 0-15.8-18-23.7-26.9z" fill="#000000" class="fill-000000"></path><path d="M456.4 901.9c-.4-.6-.7-1.2-.8-1.9-2.2.3-4.6.6-6.8 1-17.7 2.9-33.1 5.6-45.6 8.3-16.9 3.6-27.8 6.7-31.9 9.5-6.8 4.6-11.1 9.4-13.4 14-1.5 3.2-1.9 5.9-1.6 8 0 .2.1.4.1.5.1.2.2.4.3.5l183.8 151.9c.4.3.8.2 1.1-.2l73.6-113.3c.3-.4.2-1.1-.2-1.4-.4-.3-.9-.3-1.2.2l-73 112.6-182.9-151.1c-.2-1.6.1-3.9 1.4-6.6 2.1-4.3 6.1-8.8 12.7-13.3 3.9-2.6 14.7-5.8 31.4-9.3 12.4-2.6 27.8-5.4 45.5-8.3 2.5-.4 5.1-.7 7.5-1.1z" fill="#000000" class="fill-000000"></path><path d="M466.4 898.4c-3 .5-6.1.9-9.1 1.4.1.3.1.7.4.9l.8.9c3.1-.5 6.3-.9 9.5-1.4l-1.6-1.8zM482 898.1c3.2-.5 6.3-.9 9.5-1.4l-1.6-1.8c-3.2.5-6.3 1-9.5 1.4l1.6 1.8zM492 894.6l-2.1.3 1.6 1.8 2.1-.3c-.6-.7-1-1.2-1.6-1.8zM480.4 896.4l-2.1.3 1.6 1.8 2.1-.3-1.6-1.8zM468.5 898.1l-2.1.3 1.6 1.8c.7-.1 1.4-.2 2.2-.3-.6-.6-1.3-1.3-1.7-1.8z" fill="#000000" class="fill-000000"></path><path d="m457.3 899.8-1.8.3c.2.7.4 1.3.8 1.9l2.1-.3-.8-.9c-.1-.3-.2-.7-.3-1zM562.4 948.7c-12.4 0-22.4 12.2-22.4 27.2 0 15.1 10 27.3 22.4 27.3 12.4 0 22.4-12.2 22.4-27.3 0-15-10.1-27.2-22.4-27.2zm0 2c11.5 0 20.8 11.3 20.8 25.3s-9.3 25.3-20.8 25.3-20.7-11.3-20.7-25.3c-.1-14 9.2-25.3 20.7-25.3zM811.1 720c-.2 0-.4 0-.6.2-.3.4-.4 1-.1 1.4l16.4 23.7c.3.4.8.5 1.2.1.3-.4.4-1 .1-1.4l-16.4-23.7c-.2-.1-.4-.3-.6-.3zM1059.8 364.4c-.2.1-.3.2-.4.4-.8 1.5-1.8 3.8-3 6.7-.3.6-.5 1.2-.8 1.9-.9 2.3-1.9 4.8-2.8 7.3-.3.9-1.2 3.3-1.3 3.3-.1.4.1.8.5 1 .4.1.8-.1 1-.4 0 0 .9-2.4 1.2-3.3.9-2.5 1.9-5 2.8-7.3.3-.6.5-1.3.8-1.9 1.2-2.8 2.1-5 2.9-6.5.2-.4.1-.8-.3-1-.2-.3-.5-.3-.6-.2zM1186.6 271.6c-.4-.1-.8.1-.9.5-.1.4.1.8.5.9.1 0 .2.1.4.1.4.1.8.2 1.3.4 1.4.4 3 1 4.7 1.6 4.8 1.9 9.6 4.2 14.1 7.1 5.8 3.7 10.6 7.9 14.1 12.8.2.3.7.4 1 .2.3-.2.4-.7.2-1.1-3.6-5-8.6-9.4-14.5-13.1-4.6-2.9-9.5-5.3-14.4-7.2-1.7-.7-3.3-1.2-4.8-1.7-.5-.2-1-.3-1.3-.4-.2 0-.4 0-.4-.1zM898.4 379.1c-.4-.1-.8.2-.9.6L881 444.9c-.1.4.1.8.5.9.4.1.8-.2.9-.6l16.4-65.3c.2-.3 0-.7-.4-.8zM1039.7 464.9c-.4-.1-.8.1-1 .4 0 0-.8 2.3-1.1 3.1-.9 2.5-1.9 5.2-3 8.2-3.2 8.5-6.6 17-9.9 25-2 4.7-3.9 9-5.7 12.9-4.3 9.3-8.1 16-11.1 19.8-.3.3-.2.8.1 1.1.3.3.8.2 1.1-.1 3.1-3.9 6.9-10.7 11.3-20.1 1.8-4 3.7-8.3 5.7-13 3.4-8 6.7-16.5 9.9-25 1.1-3 3.7-9.9 3.9-10.6.1-.2.3-.8.3-.8.1-.3-.1-.7-.5-.9z" fill="#000000" class="fill-000000"></path><path d="M1038.2 744.5c-.5 0-1 .4-1 1s.5 1 1 1l107.3.8c.6 0 1-.4 1-1s-.4-1-1-1l-107.3-.8z" fill="#feffff" class="fill-feffff"></path><path d="M556.8 861.9c-.2.1-.4.3-.5.5-.2.5 0 1.1.4 1.3.1 0 .2.1.5.3.4.2.8.5 1.4.9 1.5 1 3.2 2.2 5.2 3.6 5.6 4.1 11.8 9.4 18.5 15.7 19.2 18.3 38.4 42.1 56.3 72.3 4.3 7.2 8.5 14.7 12.5 22.5.2.5.7.6 1.1.3.4-.3.5-.9.3-1.4-4.1-7.8-8.3-15.4-12.6-22.6-18-30.3-37.3-54.3-56.6-72.7-6.8-6.4-13.1-11.7-18.7-15.9-2-1.5-3.8-2.7-5.3-3.7-.5-.4-1-.6-1.4-.9-.2-.1-.4-.3-.5-.3-.1 0-.4 0-.6.1z" fill="#000000" class="fill-000000"></path><path d="M1072.8 386.1c-.4-.1-.8.2-.9.6l-4.2 22.7c-.1.4.2.8.6.9.4.1.8-.2.9-.6l4.2-22.7c0-.4-.2-.8-.6-.9zM1104.3 434.7c-.2-.1-.4 0-.6 0l-21.3 11.3c-.4.2-.5.6-.3 1s.7.5 1 .3l21.3-11.3c.4-.2.5-.6.3-1 0-.2-.2-.3-.4-.3zM1174.1 392.2c-.2 0-.4.1-.5.2-.3.3-.3.8 0 1.1l18.4 18.3c.3.3.8.3 1.1 0 .3-.3.3-.8 0-1.1l-18.4-18.3c-.3-.2-.4-.2-.6-.2zM1262.4 386.1l-25.1 5.7c-.4.1-.7.5-.6.9.1.4.5.7.9.6l25.1-5.7c.4-.1.7-.5.6-.9-.1-.4-.5-.7-.9-.6zM1095.5 339.9c-.2 0-.4.1-.5.2-.3.3-.3.7-.1 1.1l18 20.5c.3.3.8.3 1.1.1.3-.3.3-.8.1-1.1l-18-20.5c-.2-.2-.4-.3-.6-.3zM1045.1 440.1l-21.8 4.9c-.4.1-.7.5-.6.9.1.4.5.7.9.6l21.8-4.9c.4-.1.7-.5.6-.9-.1-.4-.5-.7-.9-.6zM1024.6 367.3c-.4.1-.6.5-.5.9l5.2 20.1c.1.4.5.6.9.5.4-.1.7-.5.5-.9l-5.2-20.1c-.1-.3-.5-.6-.9-.5zM1144.8 498.7c-.4-.1-.8.2-.9.6l-5.9 33.1c-.1.4.2.8.6.9.4.1.8-.2.9-.6l6-33.1c0-.4-.3-.8-.7-.9zM1198.1 445.1c-.2-.1-.4 0-.6.1l-28.7 16.5c-.4.2-.5.7-.3 1 .2.4.7.5 1 .3l28.7-16.5c.4-.2.5-.7.3-1 0-.3-.2-.4-.4-.4zM1055.6 480.1c-.3 0-.5.2-.7.4-.3.4-.3 1.1.2 1.4l27.1 19.9c.5.3 1.1.2 1.4-.2.3-.4.2-1.1-.2-1.4l-27.1-19.9c-.2-.1-.4-.2-.7-.2zM1239.1 426.5c-.4 0-.8.3-.8.7l-1.7 28.4c0 .4.3.8.7.8.4 0 .8-.3.8-.7l1.7-28.4c0-.4-.3-.8-.7-.8z" fill="#feffff" class="fill-feffff"></path><path d="M1296.9 301.7c-.2 0-.4.1-.6.3-.3.3-.3.9 0 1.2 0 0 .6.7.9.9.7.8 1.6 1.7 2.4 2.7 2.5 2.9 5 6.2 7.3 9.8 6.9 10.5 11 20.9 10.6 30.6-.1 1.9-.3 3.8-.7 5.6-.1.5.2.9.6 1 .4.1.9-.2 1-.6.4-1.9.7-3.9.7-5.9.3-10.1-3.8-20.9-10.9-31.6-2.4-3.6-4.9-6.9-7.5-9.9-.9-1-1.7-2-2.5-2.8-.3-.3-.9-.9-.9-1 .1-.2-.1-.3-.4-.3zM794.7 618.3c-.5 0-.8.4-.8 1-.1 20.8-4.5 36-12.4 46.5-6.7 8.8-15.8 14-26.7 16.1-10 1.9-20.8 1.1-31.2-1.4-2.2-.5-4.2-1.1-6-1.7-.6-.2-1.2-.4-1.6-.5-.3-.1-.5-.2-.6-.2-.4-.2-.9.1-1 .7-.1.5.1 1.1.5 1.2.1 0 .3.1.6.2.5.2 1 .4 1.7.6 1.8.6 3.9 1.2 6.1 1.7 10.6 2.5 21.5 3.4 31.8 1.4 11.3-2.1 20.7-7.5 27.7-16.7 8.2-10.8 12.7-26.6 12.8-47.9-.1-.5-.4-1-.9-1zM267.8 411.1c-.6 0-1 .4-1 1v204.8c0 .6.4 1 1 1h204.8c.6 0 1-.4 1-1V412.1c0-.6-.4-1-1-1H267.8zm1 2h202.8v202.8H268.8V413.1zM412.8 120.1c-.6 0-1 .4-1 1v177.3c0 .6.4 1 1 1h177.3c.6 0 1-.4 1-1V121.1c0-.6-.4-1-1-1H412.8zm1 2h175.3v175.3H413.8V122.1zM232 318.8c-.6 0-1 .4-1 1v24.5c0 .6.4 1 1 1h64.9c.6 0 1-.4 1-1v-24.5c0-.6-.4-1-1-1H232zm1 2h62.9v22.5H233v-22.5zM197.8 217.2c-.6 0-1 .4-1 1V256c0 .6.4 1 1 1h180.8c.6 0 1-.4 1-1v-37.8c0-.6-.4-1-1-1H197.8zm1 2h178.8V255H198.8v-35.8zM322.8 360.9c-.6 0-1 .4-1 1v24.3c0 .6.4 1 1 1h244.3c.6 0 1-.4 1-1v-24.3c0-.6-.4-1-1-1H322.8zm1 2h242.3v22.3H323.8v-22.3zM956.9 353.5c-.2 0-.4 0-.6.1L882 409.8c-.2.1-.3.4-.3.6l-1.3 94.1c0 .4.3.8.8.8.4 0 .7-.3.8-.8l1.3-93.7 73.9-55.8c.3-.3.4-.7.2-1-.2-.3-.3-.4-.5-.5z" fill="#000000" class="fill-000000"></path><path d="M843.8 389.1c-.2.1-.3.2-.4.4-.2.4-.1.8.3 1l37.9 20.8c.4.2.8.1 1-.3.2-.4.1-.8-.3-1l-37.9-20.8c-.2-.2-.4-.2-.6-.1zM944.5 484.8c-.2.1-.4.3-.5.6-.2.5.1 1.1.6 1.3l35.7 13.5c.5.2 1.1 0 1.3-.6.2-.5-.1-1.1-.6-1.3l-35.7-13.5c-.3-.1-.6-.1-.8 0zM992.3 506.9c-.4-.1-.8.1-1 .4-.1.4.1.8.4 1l26.5 10c.4.1.8-.1 1-.4.1-.4 0-.8-.4-1l-26.5-10zM997 497.2c-.4-.1-.8 0-1 .4-.1.4 0 .8.4 1l25.6 9.6c.4.1.8-.1 1-.4.1-.4-.1-.8-.5-1l-25.5-9.6zM1000.3 489.1c-.4-.1-.8.1-.9.5-.1.4.1.8.5.9l26.3 9c.4.1.8-.1 1-.5.1-.4-.1-.8-.5-.9l-26.4-9zM1003.9 480.8c-.4-.1-.8.1-1 .4-.1.4.1.8.4 1l25.7 9.5c.4.1.8-.1 1-.4.2-.4-.1-.8-.4-1l-25.7-9.5zM1007.4 472.8c-.4-.1-.8.1-1 .5-.1.4.1.8.5 1l26.3 8.6c.4.1.8-.1 1-.5.1-.4-.1-.8-.5-.9l-26.3-8.7zM1010 465.3c-.4-.1-.8.1-.9.5-.1.4.1.8.5.9l26.4 8c.4.1.8-.1.9-.5.1-.4-.1-.8-.5-.9l-26.4-8zM356.3 288.8c-.3.2-.5.5-.5.9v35.9c0 .8.8 1.3 1.5.9l31.1-17.9c.7-.4.7-1.4 0-1.8-.5-.3-31.1-17.9-31.1-17.9-.3-.3-.7-.3-1-.1zm1.5 2.6c2.5 1.5 25.2 14.5 28.1 16.2l-28.1 16.2v-32.4zM543.4 138.9c-.2-.1-.5-.1-.8.1l-5.8 3c-.5.3-.7.9-.4 1.3l6.4 12.6-12.6 6.4c-.5.2-.7.9-.4 1.3l2.9 5.9c.2.5.9.7 1.3.4l12.7-6.4 6.4 12.7c.3.5.9.7 1.3.4l5.8-3c.5-.3.7-.9.4-1.3l-6.4-12.6 12.6-6.4c.5-.2.7-.9.4-1.3-.4-.7-2.6-5.1-2.9-5.9-.2-.5-.9-.7-1.3-.4l-12.7 6.4-6.4-12.7c0-.2-.2-.4-.5-.5zm-.7 2.3 6.4 12.7c.3.5.9.7 1.3.4l12.7-6.4c.6 1.2 1.5 2.9 2.1 4.1l-12.6 6.4c-.5.2-.7.8-.4 1.3l6.4 12.6-4 2.1-6.4-12.7c-.3-.5-.9-.7-1.3-.4l-12.7 6.4-2.1-4.1 12.6-6.4c.5-.3.7-.9.4-1.3l-6.4-12.6 4-2.1zM391.8 424.4c-6.4 0-11.5 5.2-11.5 11.5 0 6.4 5.2 11.5 11.5 11.5 6.4 0 11.5-5.2 11.5-11.5s-5.1-11.5-11.5-11.5zm0 2c5.3 0 9.5 4.3 9.5 9.5 0 5.3-4.3 9.5-9.5 9.5s-9.5-4.3-9.5-9.5 4.2-9.5 9.5-9.5zM421.6 424.4c-6.4 0-11.5 5.2-11.5 11.5 0 6.4 5.2 11.5 11.5 11.5s11.5-5.2 11.5-11.5-5.2-11.5-11.5-11.5zm0 2c5.3 0 9.5 4.3 9.5 9.5 0 5.3-4.3 9.5-9.5 9.5-5.3 0-9.5-4.3-9.5-9.5-.1-5.2 4.2-9.5 9.5-9.5zM451.2 424.4c-6.4 0-11.5 5.2-11.5 11.5 0 6.4 5.2 11.5 11.5 11.5 6.4 0 11.5-5.2 11.5-11.5s-5.2-11.5-11.5-11.5zm0 2c5.3 0 9.5 4.3 9.5 9.5 0 5.3-4.3 9.5-9.5 9.5s-9.5-4.3-9.5-9.5c-.1-5.2 4.2-9.5 9.5-9.5zM316 510.1c-.6 0-1 .4-1 1v81.8c0 .6.4 1 1 1h24c.6 0 1-.4 1-1v-81.8c0-.6-.4-1-1-1h-24zm1 2h22V592h-22v-79.9zM355.3 538.8c-.6 0-1 .4-1 1V593c0 .6.4 1 1 1h23.9c.6 0 1-.4 1-1v-53.2c0-.6-.4-1-1-1h-23.9zm1 2h21.9V592h-21.9v-51.2zM391.9 562.7c-.6 0-1 .4-1 1V593c0 .6.4 1 1 1h23.9c.6 0 1-.4 1-1v-29.3c0-.6-.4-1-1-1h-23.9zm1 2h21.9V592h-21.9v-27.3z" fill="#000000" class="fill-000000"></path><path d="M475.8 225.7h44v46.6h-44v-46.6z" fill="#6c63ff" class="fill-efb940"></path><path d="M487.6 212.3h45.7l-13 14h-45.7l13-14z" fill="#6c63ff" class="fill-efb940"></path><path d="M533.9 258.5v-45.7l-14 13v45.7l14-13zM475.8 225.7h44v46.6h-44v-46.6z" fill="#6c63ff" class="fill-efb940"></path><path d="M487.6 212.3h45.7l-13 14h-45.7l13-14z" fill="#6c63ff" class="fill-efb940"></path><path d="M533.9 258.5v-45.7l-14 13v45.7l14-13z" fill="#6c63ff" class="fill-efb940"></path><path d="M519.8 226.9c-.3 0-.5-.1-.7-.3-.4-.4-.4-1 0-1.4l14-13.9c.4-.4 1-.4 1.4 0 .4.4.4 1 0 1.4l-14 13.9c-.1.2-.4.3-.7.3z" fill="#000000" class="fill-000000"></path><path d="M520.1 273.7h-45c-.6 0-1-.4-1-1v-47c0-.6.4-1 1-1h45c.6 0 1 .4 1 1v47c0 .6-.5 1-1 1zm-44-2h43v-45h-43v45z" fill="#000000" class="fill-000000"></path><path d="M520.2 273.7c-.3 0-.5-.1-.7-.3-.4-.4-.4-1 0-1.4l13.4-13.5v-45.6h-43.6L476 226.2c-.4.4-1 .4-1.4 0-.4-.4-.4-1 0-1.4l13.7-13.6c.2-.2.4-.3.7-.3h45c.6 0 1 .4 1 1v47c0 .3-.1.5-.3.7L521 273.4c-.3.2-.6.3-.8.3zM428.4 137.4c-.6 0-1 .4-1 1v22.7c0 .6.4 1 1 1h91.5c.6 0 1-.4 1-1v-22.7c0-.6-.4-1-1-1h-91.5zm1 2h89.5v20.7h-89.5v-20.7z" fill="#000000" class="fill-000000"></path><path d="M120.2 1088.9c-.6 0-1 .4-1 1s.4 1 1 1h1340c.6 0 1-.4 1-1s-.4-1-1-1h-1340zM1081.9 146.5c-8.6 0-15.5 7-15.5 15.5s7 15.5 15.5 15.5c8.6 0 15.5-7 15.5-15.5s-7-15.5-15.5-15.5zm0 2c7.5 0 13.5 6.1 13.5 13.5s-6.1 13.5-13.5 13.5c-7.5 0-13.5-6.1-13.5-13.5s6-13.5 13.5-13.5z" fill="#2e2543" class="fill-2e2543"></path><path d="M583 499.9c0-18 14.4-32.5 32.2-32.5s32.2 14.6 32.2 32.5c0 18-14.4 32.5-32.2 32.5S583 517.9 583 499.9z" fill="#6c63ff" class="fill-efb940"></path><path d="M583 499.9c0-18 14.4-32.5 32.2-32.5s32.2 14.6 32.2 32.5c0 18-14.4 32.5-32.2 32.5S583 517.9 583 499.9z" fill="#6c63ff" class="fill-efb940"></path><path d="M614 466c-13.1.6-25.3 8.9-30.2 22-6.5 17.5 2.4 36.9 19.9 43.4s36.9-2.4 43.4-19.8c6.5-17.5-2.4-36.9-19.8-43.4-4.4-1.7-8.9-2.4-13.3-2.2zm.1 2c4.1-.2 8.4.4 12.5 2 16.4 6.1 24.8 24.4 18.7 40.8s-24.4 24.8-40.8 18.7c-16.4-6.1-24.8-24.4-18.7-40.8 4.5-12.4 15.9-20.2 28.3-20.7z" fill="#2e2543" class="fill-2e2543"></path><path d="M573.3 445c-.9.2-1.7.5-2.3 1-7.1 6.3 8.2 34.1 33.7 62.9 25.5 28.8 51.3 47.3 58.4 41 5.1-4.5-.9-19.4-14.6-38.8-.3-.5-1-.6-1.4-.3-.5.3-.5 1-.2 1.4 13 18.4 18.7 32.8 14.9 36.2-5.7 5.1-31-13.1-55.6-40.8-24.6-27.7-39.6-55-33.9-60 3.6-3.2 17.9 5 34.8 20 .4.4 1.1.3 1.4-.1.4-.4.3-1-.1-1.4-15.6-14-28.8-22.2-35.1-21.1z" fill="#2e2543" class="fill-2e2543"></path><path d="M1349.2 143.8c0-11.3 9.5-20.5 21.1-20.5 11.7 0 21.1 9.2 21.1 20.5s-9.5 20.5-21.1 20.5c-11.6 0-21.1-9.1-21.1-20.5z" fill="#6c63ff" class="fill-efb940"></path><path d="M1370.5 165.7c-5.5 0-10.7-2-14.7-5.7-4.4-3.9-7-9.4-7.3-15.2-.3-5.9 1.7-11.5 5.6-15.9 3.9-4.4 9.4-7 15.2-7.3 5.9-.3 11.5 1.7 15.9 5.6 4.4 3.9 7 9.4 7.3 15.2s-1.7 11.5-5.6 15.9c-3.9 4.4-9.4 7-15.2 7.3-.4.1-.8.1-1.2.1zm0-42.1h-1.1c-5.3.3-10.3 2.6-13.9 6.6-3.6 4-5.4 9.1-5.1 14.5.3 5.4 2.6 10.3 6.6 13.9 4 3.6 9.1 5.4 14.5 5.1 5.3-.3 10.3-2.6 13.9-6.6 3.6-4 5.4-9.1 5.1-14.5-.3-5.4-2.6-10.3-6.6-13.9-3.7-3.3-8.4-5.1-13.4-5.1z" fill="#2e2543" class="fill-2e2543"></path><path d="M1405 163.9c-8.8 0-24.5-5.1-38.6-11.8-19.8-9.2-39.1-22.5-36.1-29 2.7-5.7 21.9.1 27.7 2.1.5.2.8.7.6 1.3-.2.5-.7.8-1.3.6-15.2-5-24.2-5.4-25.3-3.1-1.8 3.8 12.2 15.6 35.1 26.3 23 10.7 41 13.9 42.8 10.1 1.1-2.3-4.1-8.6-17.9-17.1-.5-.3-.6-.9-.3-1.4.3-.5.9-.6 1.4-.3 6.5 4 21.4 13.9 18.7 19.7-.9 1.8-3.3 2.6-6.8 2.6zM1223.7 77.3c-1 0-2.1.7-2.8 2l-1.7 3.1c-1 1.8-3.3 4.1-5.2 5.1l-3.1 1.7c-2.7 1.5-2.7 4.2 0 5.7l3.1 1.7c1.8 1 4.2 3.3 5.2 5.2l1.7 3.1c1.5 2.7 4.2 2.7 5.7 0l1.7-3.1c1-1.8 3.3-4.2 5.2-5.2l3.1-1.7c2.7-1.5 2.7-4.2 0-5.7l-3.1-1.7c-1.8-1-4.2-3.3-5.2-5.1l-1.7-3.1c-.8-1.3-1.8-2-2.9-2zm0 2c.4 0 .7.3 1.1 1l1.7 3.1c1.2 2.1 3.8 4.8 5.9 6l3.1 1.7c1.3.7 1.3 1.5 0 2.2l-3.1 1.7c-2.2 1.2-4.8 3.8-5.9 5.9l-1.7 3.1c-.7 1.3-1.5 1.3-2.2 0l-1.7-3.1c-1.2-2.1-3.8-4.8-6-5.9l-3.1-1.7c-1.3-.7-1.3-1.5 0-2.2l3.1-1.7c2.2-1.2 4.8-3.8 6-6l1.7-3.1c.4-.6.7-1 1.1-1zM1458.5 322.3c-1 0-2.1.7-2.8 2l-1.7 3.1c-1 1.8-3.3 4.2-5.2 5.2l-3.1 1.7c-2.7 1.5-2.7 4.2 0 5.7l3.1 1.7c1.8 1 4.2 3.3 5.2 5.1l1.7 3.1c1.5 2.7 4.2 2.7 5.7 0l1.7-3.1c1-1.8 3.3-4.1 5.2-5.1l3.1-1.7c2.7-1.5 2.7-4.2 0-5.7l-3.1-1.7c-1.8-1-4.2-3.3-5.2-5.2l-1.7-3.1c-.8-1.3-1.9-2-2.9-2zm0 2c.4 0 .7.3 1.1 1l1.7 3.1c1.2 2.1 3.8 4.8 5.9 5.9l3.1 1.7c1.3.7 1.3 1.5 0 2.2l-3.1 1.7c-2.1 1.2-4.8 3.8-5.9 6l-1.7 3.1c-.7 1.3-1.5 1.3-2.2 0l-1.7-3.1c-1.2-2.1-3.8-4.8-5.9-6l-3.1-1.7c-1.3-.7-1.3-1.5 0-2.2l3.1-1.7c2.2-1.2 4.8-3.8 5.9-5.9l1.7-3.1c.3-.7.7-1 1.1-1zM219.6 388.6c-1.8-.1-3.1 1.3-2.9 3.6l.2 3.5c.1 2.1-.6 5.3-1.7 7.1l-1.7 3.1c-1.5 2.7-.1 5 3 4.8l3.5-.2c2.1-.1 5.3.7 7.1 1.7l3.1 1.7c2.7 1.5 5 0 4.8-3l-.2-3.5c-.1-2.1.6-5.3 1.7-7.1l1.7-3.1c1.5-2.7.1-5-3-4.8l-3.5.2c-2.1.1-5.3-.6-7.1-1.7l-3-1.8c-.7-.2-1.4-.4-2-.5zm-.5 2.1c.3-.2.8-.1 1.4.3l3.1 1.7c2.1 1.2 5.7 2.1 8.2 1.9l3.5-.2c1.5-.1 1.9.6 1.2 1.8l-1.8 3c-1.2 2.1-2 5.7-1.9 8.2l.2 3.5c.1 1.5-.6 1.8-1.8 1.1l-3.1-1.7c-2.1-1.2-5.7-2.1-8.2-1.9l-3.5.2c-1.5.1-1.9-.6-1.2-1.8l1.8-3c1.2-2.1 2-5.7 1.9-8.2l-.2-3.5c0-.7.1-1.2.4-1.4z" fill="#2e2543" class="fill-2e2543"></path><path d="M1202.4 559.5c-.3 0-.5 0-.7.2l-14.5 11.2c-.4.3-.5 1-.2 1.4s1 .5 1.4.2l14.5-11.2c.4-.3.5-1 .2-1.4-.2-.3-.5-.4-.7-.4zM993.8 777.7c-.6 0-1 .4-1 1s.4 1 1 1l29.1.3c.5 0 1-.4 1-1s-.5-1-1-1l-29.1-.3z" fill="#feffff" class="fill-feffff"></path><path d="m721.1 969-17.6-7.9 59.3-96.6L721.1 969zM634.8 770.6c-.2 0-.4-.1-.6-.2-.4-.3-.5-1-.2-1.4 3.7-4.9 90.9-119.6 126.1-136.9 35-17.2 213.3-75.9 215.1-76.5.5-.2 1.1.1 1.3.6.2.5-.1 1.1-.6 1.3-1.8.6-180 59.2-214.9 76.4C726.3 651 636.5 769 635.6 770.2c-.2.3-.5.4-.8.4z" fill="#000000" class="fill-000000"></path></svg>